<svg width="64" height="64" viewBox="0 0 64 64" fill="none" xmlns="http://www.w3.org/2000/svg">
<path d="M36.3112 10.0811C38.7816 8.08502 41.5485 7.96385 44.5717 8.00622C46.1355 8.02814 46.9173 8.03913 47.5445 8.28235C48.5397 8.66827 49.3317 9.46038 49.7176 10.4555C49.9608 11.0827 49.9717 11.8645 49.9939 13.4282C50.0363 16.4514 49.9149 19.2183 47.9189 21.6887C46.2381 23.769 43.3491 24.856 41.9589 27.1523C40.8976 28.9053 41.392 30.7208 41.848 32.5891L45.2608 46.5765C45.9411 49.364 45.4235 51.1507 43.4744 53.0997C42.4373 54.1368 41.5747 54.0843 40.7336 52.744L30.4339 36.3331L25.5149 40.2429C23.7315 41.6608 22.8397 42.3696 22.3712 43.3672C21.2736 45.7035 21.9704 49.2125 22.0059 51.7456C22.0256 53.1456 20.8157 55.9051 19.1038 55.9981C18.0468 56.0557 17.6876 54.7915 17.3462 54.0155L14.0596 46.5451C13.2736 44.7587 13.2414 44.7264 11.4548 43.9405L3.9844 40.6539C3.20848 40.3125 1.94438 39.9531 2.0019 38.8963C2.09507 37.1843 4.8543 35.9744 6.2543 35.9941C8.78752 36.0296 12.2966 36.7264 14.6329 35.6288C15.6305 35.1603 16.3393 34.2685 17.757 32.4851L21.6669 27.5661L5.25608 17.2664C3.91587 16.4252 3.86326 15.5626 4.90014 14.5257C6.84934 12.5765 8.63603 12.059 11.4234 12.7392L25.4109 16.1521C27.2792 16.608 29.0947 17.1025 30.8477 16.0411C33.144 14.651 34.2309 11.762 36.3112 10.0811Z" stroke="#3586CB" stroke-width="3" stroke-linecap="round" stroke-linejoin="round"/>
</svg>
