<svg width="845" height="562" viewBox="0 0 845 562" fill="none" xmlns="http://www.w3.org/2000/svg">
<g clip-path="url(#clip0_4273_1326)">
<g filter="url(#filter0_f_4273_1326)">
<path d="M398.863 89H418.825L668.534 506.572L650.911 516.392L498.526 311.987L398.863 89Z" fill="url(#paint0_linear_4273_1326)"/>
</g>
<path d="M669.369 506.573L379.156 21.3535H892.573C913.446 21.3535 930.826 37.3706 932.527 58.1741L969.186 506.573L571.657 550.835L602.558 539.979L639.304 523.276L669.369 506.573Z" fill="white"/>
<circle cx="422.166" cy="89.0001" r="59.6304" stroke="#D0D5DD"/>
<circle cx="422.165" cy="89.0001" r="119.761" stroke="#D0D5DD"/>
<circle cx="422.165" cy="89.0002" r="179.891" stroke="#D0D5DD"/>
<circle opacity="0.8" cx="422.165" cy="89.0001" r="241.692" stroke="#D0D5DD"/>
<circle opacity="0.6" cx="422.166" cy="89.0002" r="301.822" stroke="#D0D5DD"/>
<path opacity="0.4" d="M784.119 93.1759C784.119 292.615 622.068 454.294 422.166 454.294C222.264 454.294 60.2129 292.615 60.2129 93.1759C60.2129 -106.263 222.264 -267.942 422.166 -267.942C622.068 -267.942 784.119 -106.263 784.119 93.1759Z" stroke="#D0D5DD"/>
<circle opacity="0.4" cx="422.165" cy="89.0003" r="422.083" stroke="#D0D5DD"/>
<path d="M418.824 89L670.203 506.572" stroke="url(#paint1_linear_4273_1326)" stroke-width="1.67029"/>
<rect x="390" y="57" width="64" height="64" rx="32" fill="#214D80"/>
<path d="M427.156 78.0405C428.391 77.0425 429.774 76.9819 431.286 77.0031C432.068 77.0141 432.459 77.0196 432.772 77.1412C433.27 77.3341 433.666 77.7302 433.859 78.2278C433.98 78.5414 433.986 78.9323 433.997 79.7141C434.018 81.2257 433.957 82.6092 432.959 83.8444C432.119 84.8845 430.675 85.428 429.979 86.5761C429.449 87.4527 429.696 88.3604 429.924 89.2945L431.63 96.2883C431.971 97.682 431.712 98.5753 430.737 99.5499C430.219 100.068 429.787 100.042 429.367 99.372L424.217 91.1665L421.757 93.1215C420.866 93.8304 420.42 94.1848 420.186 94.6836C419.637 95.8517 419.985 97.6063 420.003 98.8728C420.013 99.5728 419.408 100.953 418.552 100.999C418.023 101.028 417.844 100.396 417.673 100.008L416.03 96.2725C415.637 95.3793 415.621 95.3632 414.727 94.9703L410.992 93.3269C410.604 93.1563 409.972 92.9765 410.001 92.4481C410.048 91.5921 411.427 90.9872 412.127 90.9971C413.394 91.0148 415.148 91.3632 416.316 90.8144C416.815 90.5801 417.17 90.1343 417.879 89.2425L419.833 86.7831L411.628 81.6332C410.958 81.2126 410.932 80.7813 411.45 80.2629C412.425 79.2883 413.318 79.0295 414.712 79.3696L421.705 81.076C422.64 81.304 423.547 81.5512 424.424 81.0205C425.572 80.3255 426.115 78.881 427.156 78.0405Z" stroke="white" stroke-width="1.5" stroke-linecap="round" stroke-linejoin="round"/>
<rect x="153" y="83" width="20" height="20" rx="10" fill="#E1EDFA"/>
<rect x="262.289" y="130.024" width="12" height="12" rx="6" fill="#A7BFDA"/>
<rect x="236" y="286" width="12" height="12" rx="6" fill="#A7BFDA"/>
<rect x="286" y="21" width="12" height="12" rx="6" fill="#E1EDFA"/>
<rect x="36" y="73" width="12" height="12" rx="6" fill="#E1EDFA"/>
<rect x="112.289" y="166.29" width="12" height="12" rx="6" fill="#E1EDFA"/>
<rect x="108" y="3" width="12" height="12" rx="6" fill="#E1EDFA"/>
<rect x="459" y="250" width="24" height="24" rx="12" fill="#214D80"/>
<rect x="339" y="189" width="12" height="12" rx="6" fill="#214D80"/>
</g>
<defs>
<filter id="filter0_f_4273_1326" x="307.665" y="-2.19782" width="452.066" height="609.788" filterUnits="userSpaceOnUse" color-interpolation-filters="sRGB">
<feFlood flood-opacity="0" result="BackgroundImageFix"/>
<feBlend mode="normal" in="SourceGraphic" in2="BackgroundImageFix" result="shape"/>
<feGaussianBlur stdDeviation="45.5989" result="effect1_foregroundBlur_4273_1326"/>
</filter>
<linearGradient id="paint0_linear_4273_1326" x1="417.991" y1="88.9997" x2="667.699" y2="510.748" gradientUnits="userSpaceOnUse">
<stop offset="0.37431" stop-color="#7DA3CE"/>
<stop offset="1" stop-color="white"/>
</linearGradient>
<linearGradient id="paint1_linear_4273_1326" x1="418.824" y1="90.6703" x2="669.368" y2="506.572" gradientUnits="userSpaceOnUse">
<stop stop-color="#D0D5DD"/>
<stop offset="1" stop-color="#98A2B3" stop-opacity="0"/>
</linearGradient>
<clipPath id="clip0_4273_1326">
<rect width="845" height="562" fill="white"/>
</clipPath>
</defs>
</svg>
