<svg width="31" height="56" viewBox="0 0 31 56" fill="none" xmlns="http://www.w3.org/2000/svg">
<path d="M20.672 28.6666H10.0054L11.1769 54.1618H19.5005M20.672 28.6666L19.5005 54.1618M20.672 28.6666C20.672 36.6061 19.5005 54.1618 19.5005 54.1618" stroke="#3586CB" stroke-width="3" stroke-linecap="round" stroke-linejoin="round"/>
<path d="M26.7209 23.6482C25.7446 26.0789 25.2564 27.2943 24.2414 27.9805C23.2265 28.6666 21.9169 28.6666 19.2974 28.6666H11.3693C8.7499 28.6666 7.44019 28.6666 6.42518 27.9805C5.41019 27.2943 4.92203 26.0789 3.94574 23.6482L3.54368 22.6473C2.21267 19.3335 1.54715 17.6766 2.34368 16.5049C3.14022 15.3333 4.93216 15.3333 8.51608 15.3333H22.1505C25.7345 15.3333 27.5265 15.3333 28.323 16.5049C29.1196 17.6766 28.454 19.3335 27.123 22.6473L26.7209 23.6482Z" stroke="#3586CB" stroke-width="3" stroke-linecap="round" stroke-linejoin="round"/>
<path d="M20.6611 15.3333H10.0155C7.84208 11.9524 6.93557 10.262 7.50485 8.92368C8.26291 7.69008 10.4061 7.33325 14.3243 7.33325H16.353C20.2712 7.33325 22.4143 7.69008 23.1725 8.92368C23.7418 10.262 22.8346 11.9524 20.6611 15.3333Z" stroke="#3586CB" stroke-width="3" stroke-linecap="round" stroke-linejoin="round"/>
<path d="M15.3379 7.33333V2" stroke="#3586CB" stroke-width="3" stroke-linecap="round" stroke-linejoin="round"/>
</svg>
