<svg width="1400" height="901" viewBox="0 0 1400 901" fill="none" xmlns="http://www.w3.org/2000/svg">
<g filter="url(#filter0_f_901_7)">
<path d="M219.804 243.5C265.832 375.1 87.5569 329.667 -7.33423 290.5C-156.425 230 -172.435 340.5 -234.974 330C-297.512 319.5 -224.467 267 -211.459 204.5C-198.451 142 -271.495 -25.5 -308.518 -130C-345.54 -234.5 -290.007 -310.5 -185.443 -323.5C-80.8791 -336.5 8.17523 -318.5 110.237 -347C212.3 -375.5 463.453 -415 698.596 -412.5C933.74 -410 868.7 -339 1103.84 -378.5C1338.99 -418 1491.08 -274 1470.07 -198C1449.05 -122 1346.99 71 1357.5 204.5C1368 338 1041.3 424 881.708 424C722.11 424 717.107 290.5 698.596 204.5C680.085 118.5 625.051 306.5 478.962 330C332.873 353.5 162.269 79.0002 219.804 243.5Z" fill="url(#paint0_radial_901_7)"/>
</g>
<g style="mix-blend-mode:hard-light">
<g filter="url(#filter1_f_901_7)">
<path d="M219.804 243.5C265.832 375.1 87.5569 329.667 -7.33423 290.5C-156.425 230 -172.435 340.5 -234.974 330C-297.512 319.5 -224.467 267 -211.459 204.5C-198.451 142 -271.495 -25.5 -308.518 -130C-345.54 -234.5 -290.007 -310.5 -185.443 -323.5C-80.8791 -336.5 8.1752 -318.5 110.237 -347C212.3 -375.5 463.453 -415 698.596 -412.5C933.74 -410 868.7 -339 1103.84 -378.5C1338.99 -418 1491.08 -274 1470.07 -198C1449.05 -122 1346.99 71 1357.5 204.5C1368 338 1041.3 424 881.708 424C722.11 424 717.107 290.5 698.596 204.5C680.085 118.5 625.051 306.5 478.962 330C332.873 353.5 162.269 79.0002 219.804 243.5Z" fill="url(#paint1_radial_901_7)"/>
</g>
<g filter="url(#filter2_f_901_7)">
<path d="M77.6089 708C80.1105 676.5 459.771 661.008 268.37 479C217.873 430.981 178.029 388.607 147.205 351.507C148.384 287.401 160.94 208.175 176.13 151.611C192.208 158.904 208.509 168.566 224.037 180.371C243.967 325.197 263.434 578.046 308.672 413.5C336.916 310.767 286.786 228.073 224.037 180.371C215.294 116.833 206.461 74.0872 195.324 96.5C188.882 109.465 182.289 128.675 176.13 151.611C75.0293 105.753 -17.2199 153.6 147.205 351.507C146.724 377.656 148.136 401.29 152.035 419.844C90.2959 354.776 59.4256 708 77.6089 708Z" fill="white" fill-opacity="0.56"/>
</g>
<g filter="url(#filter3_f_901_7)">
<path d="M1149.41 837C1146.91 805.5 767.249 790.008 958.65 608C1009.15 559.981 1048.99 517.607 1079.81 480.507C1078.64 416.401 1066.08 337.175 1050.89 280.611C1034.81 287.904 1018.51 297.566 1002.98 309.371C983.052 454.197 963.586 707.046 918.348 542.5C890.104 439.767 940.234 357.073 1002.98 309.371C1011.73 245.833 1020.56 203.087 1031.7 225.5C1038.14 238.465 1044.73 257.675 1050.89 280.611C1151.99 234.753 1244.24 282.6 1079.81 480.507C1080.3 506.656 1078.88 530.29 1074.98 548.844C1136.72 483.776 1167.59 837 1149.41 837Z" fill="white" fill-opacity="0.56"/>
</g>
</g>
<mask id="path-5-inside-1_901_7" fill="white">
<path fill-rule="evenodd" clip-rule="evenodd" d="M1194.56 317.398C1193.13 338.644 1193.78 357.406 1195 371.986C1209.64 373.217 1228.5 373.867 1249.86 372.439C1299.12 369.144 1359.3 355.003 1412.66 313.88L1457.46 224.588L1241.99 170.726C1209.37 219.823 1197.54 273.051 1194.56 317.398ZM1662.26 177.372L1560.26 228.268L1509.54 329.374C1556.97 358.699 1607.57 369.599 1650.01 372.439C1671.33 373.866 1690.15 373.218 1704.76 371.99C1705.99 357.403 1706.65 338.629 1705.23 317.37C1702.41 275.016 1691.54 224.576 1662.26 177.372ZM1556.67 125.523L1646.8 80.5504C1687.89 27.3302 1702.05 -32.6738 1705.38 -81.7951C1706.82 -103.029 1706.19 -121.783 1704.98 -136.363C1690.38 -137.589 1671.58 -138.232 1650.29 -136.808C1605.78 -133.829 1552.3 -121.987 1502.91 -89.3278L1556.67 125.523ZM1461.14 129.096L1408.23 -82.3749C1332.14 -142.18 1251.3 -143.019 1195.01 -136.489C1193.78 -121.919 1193.13 -103.146 1194.56 -81.8733C1197.77 -34.1094 1211.27 24.0424 1250.03 76.323L1461.14 129.096ZM1700.79 -167.32L1700.79 -167.305C1700.78 -167.353 1700.77 -167.378 1700.77 -167.378L1700.78 -167.373L1700.79 -167.32ZM1199.23 -167.231L1199.24 -167.285C1199.24 -167.301 1199.24 -167.279 1199.23 -167.219L1199.23 -167.231Z"/>
</mask>
<path fill-rule="evenodd" clip-rule="evenodd" d="M1194.56 317.398C1193.13 338.644 1193.78 357.406 1195 371.986C1209.64 373.217 1228.5 373.867 1249.86 372.439C1299.12 369.144 1359.3 355.003 1412.66 313.88L1457.46 224.588L1241.99 170.726C1209.37 219.823 1197.54 273.051 1194.56 317.398ZM1662.26 177.372L1560.26 228.268L1509.54 329.374C1556.97 358.699 1607.57 369.599 1650.01 372.439C1671.33 373.866 1690.15 373.218 1704.76 371.99C1705.99 357.403 1706.65 338.629 1705.23 317.37C1702.41 275.016 1691.54 224.576 1662.26 177.372ZM1556.67 125.523L1646.8 80.5504C1687.89 27.3302 1702.05 -32.6738 1705.38 -81.7951C1706.82 -103.029 1706.19 -121.783 1704.98 -136.363C1690.38 -137.589 1671.58 -138.232 1650.29 -136.808C1605.78 -133.829 1552.3 -121.987 1502.91 -89.3278L1556.67 125.523ZM1461.14 129.096L1408.23 -82.3749C1332.14 -142.18 1251.3 -143.019 1195.01 -136.489C1193.78 -121.919 1193.13 -103.146 1194.56 -81.8733C1197.77 -34.1094 1211.27 24.0424 1250.03 76.323L1461.14 129.096ZM1700.79 -167.32L1700.79 -167.305C1700.78 -167.353 1700.77 -167.378 1700.77 -167.378L1700.78 -167.373L1700.79 -167.32ZM1199.23 -167.231L1199.24 -167.285C1199.24 -167.301 1199.24 -167.279 1199.23 -167.219L1199.23 -167.231Z" fill="white" fill-opacity="0.32"/>
<path d="M1195 371.986L1194.84 373.979L1193.15 373.838L1193.01 372.154L1195 371.986ZM1194.56 317.398L1192.56 317.264L1192.56 317.264L1194.56 317.398ZM1249.86 372.439L1249.99 374.434L1249.99 374.434L1249.86 372.439ZM1412.66 313.88L1414.45 314.777L1414.25 315.186L1413.89 315.465L1412.66 313.88ZM1457.46 224.588L1457.94 222.648L1460.36 223.253L1459.24 225.485L1457.46 224.588ZM1241.99 170.726L1240.32 169.62L1241.1 168.444L1242.47 168.786L1241.99 170.726ZM1560.26 228.268L1558.47 227.371L1558.77 226.775L1559.36 226.478L1560.26 228.268ZM1662.26 177.372L1661.36 175.583L1662.99 174.769L1663.95 176.318L1662.26 177.372ZM1509.54 329.374L1508.49 331.075L1506.93 330.113L1507.75 328.477L1509.54 329.374ZM1650.01 372.439L1649.87 374.434L1649.87 374.434L1650.01 372.439ZM1704.76 371.99L1706.75 372.158L1706.61 373.841L1704.93 373.983L1704.76 371.99ZM1705.23 317.37L1703.24 317.503L1703.24 317.503L1705.23 317.37ZM1646.8 80.5504L1648.38 81.7726L1648.1 82.1354L1647.69 82.34L1646.8 80.5504ZM1556.67 125.523L1557.56 127.312L1555.33 128.425L1554.73 126.008L1556.67 125.523ZM1705.38 -81.7951L1703.38 -81.9303L1703.38 -81.9303L1705.38 -81.7951ZM1704.98 -136.363L1705.15 -138.356L1706.84 -138.215L1706.98 -136.529L1704.98 -136.363ZM1650.29 -136.808L1650.15 -138.803L1650.15 -138.803L1650.29 -136.808ZM1502.91 -89.3278L1500.97 -88.8424L1500.63 -90.2154L1501.81 -90.9961L1502.91 -89.3278ZM1408.23 -82.3749L1409.47 -83.9474L1410.01 -83.5244L1410.17 -82.8604L1408.23 -82.3749ZM1461.14 129.096L1463.08 128.61L1463.89 131.844L1460.66 131.036L1461.14 129.096ZM1195.01 -136.489L1193.02 -136.658L1193.16 -138.288L1194.78 -138.476L1195.01 -136.489ZM1194.56 -81.8733L1192.56 -81.7392L1192.56 -81.7392L1194.56 -81.8733ZM1250.03 76.323L1249.55 78.2633L1248.85 78.0896L1248.43 77.5142L1250.03 76.323ZM1700.79 -167.305L1702.75 -167.688L1698.84 -166.88L1700.79 -167.305ZM1700.79 -167.32L1702.74 -167.76L1702.75 -167.732L1702.75 -167.704L1700.79 -167.32ZM1700.77 -167.378L1698.83 -166.928L1698.77 -167.15V-167.378H1700.77ZM1700.78 -167.373L1702.72 -167.823L1702.73 -167.812L1700.78 -167.373ZM1199.24 -167.285L1201.19 -166.844L1201.19 -166.84L1199.24 -167.285ZM1199.23 -167.231L1197.26 -167.606L1197.27 -167.641L1197.28 -167.676L1199.23 -167.231ZM1199.23 -167.219L1201.18 -166.79L1197.26 -167.593L1199.23 -167.219ZM1193.01 372.154C1191.78 357.491 1191.13 338.627 1192.56 317.264L1196.55 317.532C1195.13 338.661 1195.78 357.321 1197 371.818L1193.01 372.154ZM1249.99 374.434C1228.52 375.87 1209.56 375.217 1194.84 373.979L1195.17 369.993C1209.73 371.217 1228.48 371.864 1249.72 370.443L1249.99 374.434ZM1413.89 315.465C1360.11 356.902 1299.51 371.122 1249.99 374.434L1249.72 370.443C1298.73 367.166 1358.49 353.104 1411.44 312.296L1413.89 315.465ZM1459.24 225.485L1414.45 314.777L1410.88 312.984L1455.67 223.691L1459.24 225.485ZM1242.47 168.786L1457.94 222.648L1456.97 226.528L1241.5 172.667L1242.47 168.786ZM1192.56 317.264C1195.56 272.684 1207.46 219.088 1240.32 169.62L1243.65 171.833C1211.29 220.558 1199.52 273.419 1196.55 317.532L1192.56 317.264ZM1559.36 226.478L1661.36 175.583L1663.15 179.162L1561.15 230.057L1559.36 226.478ZM1507.75 328.477L1558.47 227.371L1562.04 229.164L1511.33 330.271L1507.75 328.477ZM1649.87 374.434C1607.21 371.58 1556.27 360.619 1508.49 331.075L1510.59 327.673C1557.67 356.779 1607.93 367.619 1650.14 370.443L1649.87 374.434ZM1704.93 373.983C1690.23 375.218 1671.31 375.869 1649.87 374.434L1650.14 370.443C1671.35 371.862 1690.06 371.218 1704.59 369.997L1704.93 373.983ZM1707.23 317.237C1708.65 338.613 1707.99 357.489 1706.75 372.158L1702.77 371.821C1703.99 357.317 1704.65 338.646 1703.24 317.503L1707.23 317.237ZM1663.95 176.318C1693.46 223.876 1704.39 274.66 1707.23 317.237L1703.24 317.503C1700.43 275.372 1689.62 225.275 1660.56 178.426L1663.95 176.318ZM1647.69 82.34L1557.56 127.312L1555.78 123.733L1645.91 78.7608L1647.69 82.34ZM1707.37 -81.6598C1704.02 -32.2822 1689.78 28.1444 1648.38 81.7726L1645.22 79.3282C1685.99 26.516 1700.07 -33.0654 1703.38 -81.9303L1707.37 -81.6598ZM1706.98 -136.529C1708.19 -121.866 1708.82 -103.01 1707.37 -81.6598L1703.38 -81.9303C1704.81 -103.048 1704.19 -121.7 1702.99 -136.198L1706.98 -136.529ZM1650.15 -138.803C1671.56 -140.236 1690.46 -139.589 1705.15 -138.356L1704.81 -134.37C1690.29 -135.589 1671.6 -136.229 1650.42 -134.812L1650.15 -138.803ZM1501.81 -90.9961C1551.57 -123.901 1605.42 -135.809 1650.15 -138.803L1650.42 -134.812C1606.15 -131.85 1553.04 -120.074 1504.02 -87.6596L1501.81 -90.9961ZM1554.73 126.008L1500.97 -88.8424L1504.85 -89.8133L1558.61 125.037L1554.73 126.008ZM1410.17 -82.8604L1463.08 128.61L1459.2 129.581L1406.29 -81.8895L1410.17 -82.8604ZM1194.78 -138.476C1251.31 -145.033 1332.78 -144.222 1409.47 -83.9474L1407 -80.8025C1331.5 -140.138 1251.29 -141.005 1195.24 -134.503L1194.78 -138.476ZM1192.56 -81.7392C1191.12 -103.129 1191.78 -122.004 1193.02 -136.658L1197 -136.321C1195.78 -121.833 1195.13 -103.163 1196.55 -82.0075L1192.56 -81.7392ZM1248.43 77.5142C1209.37 24.8351 1195.79 -33.7238 1192.56 -81.7392L1196.55 -82.0075C1199.75 -34.495 1213.17 23.2497 1251.64 75.1318L1248.43 77.5142ZM1460.66 131.036L1249.55 78.2633L1250.52 74.3827L1461.63 127.155L1460.66 131.036ZM1698.83 -166.922L1698.82 -166.937L1702.75 -167.704L1702.75 -167.688L1698.83 -166.922ZM1698.77 -167.378C1698.89 -168.041 1700.9 -169.374 1702.48 -168.424C1702.57 -168.265 1702.66 -168.048 1702.68 -167.997C1702.68 -167.973 1702.7 -167.935 1702.7 -167.92C1702.7 -167.911 1702.71 -167.895 1702.71 -167.888C1702.71 -167.866 1702.72 -167.848 1702.72 -167.846C1702.72 -167.837 1702.72 -167.829 1702.72 -167.828C1702.72 -167.823 1702.73 -167.819 1702.73 -167.819C1702.73 -167.816 1702.73 -167.814 1702.73 -167.813C1702.73 -167.811 1702.73 -167.808 1702.73 -167.806C1702.73 -167.802 1702.73 -167.796 1702.73 -167.789C1702.74 -167.775 1702.74 -167.756 1702.75 -167.73L1698.84 -166.88C1698.83 -166.903 1698.83 -166.919 1698.83 -166.929C1698.82 -166.935 1698.82 -166.938 1698.82 -166.94C1698.82 -166.941 1698.82 -166.941 1698.82 -166.94C1698.82 -166.94 1698.82 -166.938 1698.82 -166.936C1698.82 -166.936 1698.83 -166.932 1698.83 -166.927C1698.83 -166.926 1698.83 -166.919 1698.83 -166.909C1698.83 -166.907 1698.84 -166.889 1698.84 -166.867C1698.84 -166.86 1698.85 -166.844 1698.85 -166.835C1698.85 -166.821 1698.87 -166.782 1698.87 -166.758C1698.89 -166.707 1698.98 -166.49 1699.07 -166.331C1700.65 -165.382 1702.66 -166.715 1702.77 -167.378H1698.77ZM1698.83 -166.923L1698.83 -166.928L1702.72 -167.827L1702.72 -167.823L1698.83 -166.923ZM1698.84 -166.881L1698.82 -166.933L1702.73 -167.812L1702.74 -167.76L1698.84 -166.881ZM1201.19 -166.84L1201.18 -166.786L1197.28 -167.676L1197.29 -167.73L1201.19 -166.84ZM1197.27 -167.648C1197.28 -167.68 1197.28 -167.702 1197.29 -167.716C1197.29 -167.722 1197.29 -167.726 1197.29 -167.729C1197.29 -167.73 1197.29 -167.73 1197.29 -167.731C1197.29 -167.731 1197.29 -167.732 1197.29 -167.732C1197.29 -167.733 1197.29 -167.735 1197.29 -167.738C1197.29 -167.738 1197.29 -167.744 1197.3 -167.751C1197.3 -167.757 1197.3 -167.782 1197.31 -167.802C1199.43 -169.281 1201.24 -167.167 1201.21 -166.911C1201.2 -166.897 1201.2 -166.877 1201.2 -166.872C1201.2 -166.87 1201.2 -166.866 1201.2 -166.864C1201.2 -166.861 1201.19 -166.859 1201.19 -166.859C1201.19 -166.857 1201.19 -166.855 1201.19 -166.855C1201.19 -166.854 1201.19 -166.854 1201.19 -166.854C1201.19 -166.852 1201.19 -166.851 1201.19 -166.85C1201.19 -166.849 1201.19 -166.847 1201.19 -166.844L1197.29 -167.725C1197.29 -167.726 1197.29 -167.727 1197.29 -167.727C1197.29 -167.727 1197.29 -167.727 1197.29 -167.728C1197.29 -167.728 1197.29 -167.728 1197.29 -167.728C1197.29 -167.728 1197.29 -167.728 1197.29 -167.728C1197.29 -167.728 1197.29 -167.728 1197.29 -167.727C1197.29 -167.727 1197.29 -167.727 1197.29 -167.726C1197.29 -167.726 1197.29 -167.725 1197.29 -167.725C1197.29 -167.724 1197.29 -167.723 1197.29 -167.721C1197.29 -167.72 1197.29 -167.718 1197.29 -167.715C1197.29 -167.714 1197.29 -167.71 1197.29 -167.707C1197.28 -167.702 1197.28 -167.683 1197.28 -167.669C1197.25 -167.413 1199.05 -165.299 1201.18 -166.778C1201.18 -166.797 1201.19 -166.823 1201.19 -166.829C1201.19 -166.836 1201.19 -166.842 1201.19 -166.842C1201.19 -166.845 1201.19 -166.847 1201.19 -166.847C1201.19 -166.848 1201.19 -166.848 1201.19 -166.849C1201.19 -166.849 1201.19 -166.85 1201.19 -166.85C1201.19 -166.851 1201.19 -166.85 1201.19 -166.845C1201.19 -166.836 1201.19 -166.818 1201.18 -166.79L1197.27 -167.648ZM1201.19 -166.857L1201.19 -166.844L1197.26 -167.593L1197.26 -167.606L1201.19 -166.857Z" fill="white" mask="url(#path-5-inside-1_901_7)"/>
<mask id="path-7-inside-2_901_7" fill="white">
<path fill-rule="evenodd" clip-rule="evenodd" d="M-353.442 317.398C-354.87 338.644 -354.225 357.406 -352.997 371.986C-338.357 373.217 -319.501 373.867 -298.144 372.439C-248.876 369.144 -188.699 355.003 -135.336 313.88L-90.5431 224.588L-306.012 170.726C-338.627 219.823 -350.463 273.051 -353.442 317.398ZM114.255 177.372L12.2565 228.268L-38.4625 329.374C8.97055 358.699 59.5698 369.599 102.008 372.439C123.33 373.866 142.148 373.218 156.761 371.99C157.994 357.403 158.648 338.629 157.233 317.37C154.413 275.016 143.538 224.576 114.255 177.372ZM8.67038 125.523L98.7993 80.5504C139.885 27.3302 154.046 -32.6738 157.376 -81.7951C158.816 -103.029 158.191 -121.783 156.982 -136.363C142.378 -137.589 123.581 -138.232 102.287 -136.808C57.7829 -133.829 4.30383 -121.987 -45.0869 -89.3278L8.67038 125.523ZM-86.8553 129.096L-139.767 -82.3749C-215.859 -142.18 -296.701 -143.019 -352.99 -136.489C-354.222 -121.919 -354.873 -103.146 -353.443 -81.8733C-350.232 -34.1094 -336.73 24.0424 -297.966 76.323L-86.8553 129.096ZM152.788 -167.32L152.791 -167.305C152.78 -167.353 152.775 -167.378 152.775 -167.378L152.776 -167.373L152.788 -167.32ZM-348.772 -167.231L-348.759 -167.285C-348.756 -167.301 -348.761 -167.279 -348.774 -167.219L-348.772 -167.231Z"/>
</mask>
<path fill-rule="evenodd" clip-rule="evenodd" d="M-353.442 317.398C-354.87 338.644 -354.225 357.406 -352.997 371.986C-338.357 373.217 -319.501 373.867 -298.144 372.439C-248.876 369.144 -188.699 355.003 -135.336 313.88L-90.5431 224.588L-306.012 170.726C-338.627 219.823 -350.463 273.051 -353.442 317.398ZM114.255 177.372L12.2565 228.268L-38.4625 329.374C8.97055 358.699 59.5698 369.599 102.008 372.439C123.33 373.866 142.148 373.218 156.761 371.99C157.994 357.403 158.648 338.629 157.233 317.37C154.413 275.016 143.538 224.576 114.255 177.372ZM8.67038 125.523L98.7993 80.5504C139.885 27.3302 154.046 -32.6738 157.376 -81.7951C158.816 -103.029 158.191 -121.783 156.982 -136.363C142.378 -137.589 123.581 -138.232 102.287 -136.808C57.7829 -133.829 4.30383 -121.987 -45.0869 -89.3278L8.67038 125.523ZM-86.8553 129.096L-139.767 -82.3749C-215.859 -142.18 -296.701 -143.019 -352.99 -136.489C-354.222 -121.919 -354.873 -103.146 -353.443 -81.8733C-350.232 -34.1094 -336.73 24.0424 -297.966 76.323L-86.8553 129.096ZM152.788 -167.32L152.791 -167.305C152.78 -167.353 152.775 -167.378 152.775 -167.378L152.776 -167.373L152.788 -167.32ZM-348.772 -167.231L-348.759 -167.285C-348.756 -167.301 -348.761 -167.279 -348.774 -167.219L-348.772 -167.231Z" fill="white" fill-opacity="0.32"/>
<path d="M-352.997 371.986L-353.164 373.979L-354.848 373.838L-354.99 372.154L-352.997 371.986ZM-353.442 317.398L-355.438 317.264L-355.438 317.264L-353.442 317.398ZM-298.144 372.439L-298.011 374.434L-298.011 374.434L-298.144 372.439ZM-135.336 313.88L-133.548 314.777L-133.753 315.186L-134.115 315.465L-135.336 313.88ZM-90.5431 224.588L-90.0581 222.648L-87.636 223.253L-88.7554 225.485L-90.5431 224.588ZM-306.012 170.726L-307.678 169.62L-306.896 168.444L-305.527 168.786L-306.012 170.726ZM12.2565 228.268L10.4689 227.371L10.7675 226.775L11.3636 226.478L12.2565 228.268ZM114.255 177.372L113.362 175.583L114.994 174.769L115.955 176.318L114.255 177.372ZM-38.4625 329.374L-39.5142 331.075L-41.0707 330.113L-40.2502 328.477L-38.4625 329.374ZM102.008 372.439L101.875 374.434L101.875 374.434L102.008 372.439ZM156.761 371.99L158.754 372.158L158.612 373.841L156.928 373.983L156.761 371.99ZM157.233 317.37L155.237 317.503L155.237 317.503L157.233 317.37ZM98.7993 80.5504L100.382 81.7726L100.102 82.1354L99.6922 82.34L98.7993 80.5504ZM8.67038 125.523L9.56335 127.312L7.33473 128.425L6.73019 126.008L8.67038 125.523ZM157.376 -81.7951L155.381 -81.9303L155.381 -81.9303L157.376 -81.7951ZM156.982 -136.363L157.149 -138.356L158.835 -138.215L158.975 -136.529L156.982 -136.363ZM102.287 -136.808L102.154 -138.803L102.154 -138.803L102.287 -136.808ZM-45.0869 -89.3278L-47.0271 -88.8424L-47.3707 -90.2154L-46.1901 -90.9961L-45.0869 -89.3278ZM-139.767 -82.3749L-138.531 -83.9474L-137.993 -83.5244L-137.827 -82.8604L-139.767 -82.3749ZM-86.8553 129.096L-84.9151 128.61L-84.1059 131.844L-87.3403 131.036L-86.8553 129.096ZM-352.99 -136.489L-354.983 -136.658L-354.845 -138.288L-353.22 -138.476L-352.99 -136.489ZM-353.443 -81.8733L-355.438 -81.7392L-355.438 -81.7392L-353.443 -81.8733ZM-297.966 76.323L-298.452 78.2633L-299.146 78.0896L-299.573 77.5142L-297.966 76.323ZM152.791 -167.305L154.754 -167.688L150.837 -166.88L152.791 -167.305ZM152.788 -167.32L154.739 -167.76L154.745 -167.732L154.751 -167.704L152.788 -167.32ZM152.775 -167.378L150.826 -166.928L150.775 -167.15V-167.378H152.775ZM152.776 -167.373L154.725 -167.823L154.727 -167.812L152.776 -167.373ZM-348.759 -167.285L-346.809 -166.844L-346.81 -166.84L-348.759 -167.285ZM-348.772 -167.231L-350.736 -167.606L-350.73 -167.641L-350.722 -167.676L-348.772 -167.231ZM-348.774 -167.219L-346.821 -166.79L-350.739 -167.593L-348.774 -167.219ZM-354.99 372.154C-356.225 357.491 -356.873 338.627 -355.438 317.264L-351.447 317.532C-352.866 338.661 -352.225 357.321 -351.004 371.818L-354.99 372.154ZM-298.011 374.434C-319.484 375.87 -338.442 375.217 -353.164 373.979L-352.829 369.993C-338.271 371.217 -319.518 371.864 -298.277 370.443L-298.011 374.434ZM-134.115 315.465C-187.886 356.902 -248.486 371.122 -298.011 374.434L-298.277 370.443C-249.265 367.166 -189.511 353.104 -136.556 312.296L-134.115 315.465ZM-88.7554 225.485L-133.548 314.777L-137.123 312.984L-92.3308 223.691L-88.7554 225.485ZM-305.527 168.786L-90.0581 222.648L-91.0281 226.528L-306.497 172.667L-305.527 168.786ZM-355.438 317.264C-352.443 272.684 -340.54 219.088 -307.678 169.62L-304.346 171.833C-336.714 220.558 -348.483 273.419 -351.447 317.532L-355.438 317.264ZM11.3636 226.478L113.362 175.583L115.148 179.162L13.1495 230.057L11.3636 226.478ZM-40.2502 328.477L10.4689 227.371L14.0442 229.164L-36.6748 330.271L-40.2502 328.477ZM101.875 374.434C59.2134 371.58 8.27234 360.619 -39.5142 331.075L-37.4108 327.673C9.66877 356.779 59.9261 367.619 102.142 370.443L101.875 374.434ZM156.928 373.983C142.234 375.218 123.313 375.869 101.875 374.434L102.142 370.443C123.347 371.862 142.063 371.218 156.593 369.997L156.928 373.983ZM159.229 317.237C160.652 338.613 159.994 357.489 158.754 372.158L154.768 371.821C155.995 357.317 156.645 338.646 155.237 317.503L159.229 317.237ZM115.955 176.318C145.457 223.876 156.394 274.66 159.229 317.237L155.237 317.503C152.432 275.372 141.618 225.275 112.556 178.426L115.955 176.318ZM99.6922 82.34L9.56335 127.312L7.77742 123.733L97.9063 78.7608L99.6922 82.34ZM159.372 -81.6598C156.024 -32.2822 141.784 28.1444 100.382 81.7726L97.2161 79.3282C137.987 26.516 152.068 -33.0654 155.381 -81.9303L159.372 -81.6598ZM158.975 -136.529C160.191 -121.866 160.819 -103.01 159.372 -81.6598L155.381 -81.9303C156.812 -103.048 156.191 -121.7 154.989 -136.198L158.975 -136.529ZM102.154 -138.803C123.564 -140.236 142.463 -139.589 157.149 -138.356L156.815 -134.37C142.293 -135.589 123.598 -136.229 102.421 -134.812L102.154 -138.803ZM-46.1901 -90.9961C3.57186 -123.901 57.4164 -135.809 102.154 -138.803L102.421 -134.812C58.1494 -131.85 5.0358 -120.074 -43.9838 -87.6596L-46.1901 -90.9961ZM6.73019 126.008L-47.0271 -88.8424L-43.1468 -89.8133L10.6106 125.037L6.73019 126.008ZM-137.827 -82.8604L-84.9151 128.61L-88.7955 129.581L-141.707 -81.8895L-137.827 -82.8604ZM-353.22 -138.476C-296.694 -145.033 -215.221 -144.222 -138.531 -83.9474L-141.003 -80.8025C-216.497 -140.138 -296.707 -141.005 -352.759 -134.503L-353.22 -138.476ZM-355.438 -81.7392C-356.876 -103.129 -356.222 -122.004 -354.983 -136.658L-350.997 -136.321C-352.222 -121.833 -352.869 -103.163 -351.447 -82.0075L-355.438 -81.7392ZM-299.573 77.5142C-338.632 24.8351 -352.21 -33.7238 -355.438 -81.7392L-351.447 -82.0075C-348.253 -34.495 -334.828 23.2497 -296.36 75.1318L-299.573 77.5142ZM-87.3403 131.036L-298.452 78.2633L-297.481 74.3827L-86.3703 127.155L-87.3403 131.036ZM150.828 -166.922L150.825 -166.937L154.751 -167.704L154.754 -167.688L150.828 -166.922ZM150.775 -167.378C150.888 -168.041 152.9 -169.374 154.479 -168.424C154.567 -168.265 154.659 -168.048 154.676 -167.997C154.684 -167.973 154.696 -167.935 154.7 -167.92C154.703 -167.911 154.707 -167.895 154.709 -167.888C154.715 -167.866 154.719 -167.848 154.719 -167.846C154.722 -167.837 154.723 -167.829 154.724 -167.828C154.725 -167.823 154.726 -167.819 154.726 -167.819C154.726 -167.816 154.727 -167.814 154.727 -167.813C154.727 -167.811 154.728 -167.808 154.728 -167.806C154.729 -167.802 154.731 -167.796 154.732 -167.789C154.735 -167.775 154.74 -167.756 154.745 -167.73L150.837 -166.88C150.832 -166.903 150.828 -166.919 150.826 -166.929C150.825 -166.935 150.824 -166.938 150.823 -166.94C150.823 -166.941 150.823 -166.941 150.823 -166.94C150.823 -166.94 150.824 -166.938 150.824 -166.936C150.824 -166.936 150.825 -166.932 150.826 -166.927C150.827 -166.926 150.828 -166.919 150.831 -166.909C150.831 -166.907 150.835 -166.889 150.841 -166.867C150.843 -166.86 150.847 -166.844 150.85 -166.835C150.854 -166.821 150.866 -166.782 150.873 -166.758C150.891 -166.707 150.982 -166.49 151.07 -166.331C152.65 -165.382 154.662 -166.715 154.775 -167.378H150.775ZM150.827 -166.923L150.826 -166.928L154.724 -167.827L154.725 -167.823L150.827 -166.923ZM150.837 -166.881L150.825 -166.933L154.727 -167.812L154.739 -167.76L150.837 -166.881ZM-346.81 -166.84L-346.822 -166.786L-350.722 -167.676L-350.709 -167.73L-346.81 -166.84ZM-350.728 -167.648C-350.72 -167.68 -350.715 -167.702 -350.713 -167.716C-350.711 -167.722 -350.71 -167.726 -350.709 -167.729C-350.709 -167.73 -350.709 -167.73 -350.709 -167.731C-350.709 -167.731 -350.709 -167.732 -350.709 -167.732C-350.709 -167.733 -350.708 -167.735 -350.708 -167.738C-350.708 -167.738 -350.706 -167.744 -350.704 -167.751C-350.703 -167.757 -350.697 -167.782 -350.692 -167.802C-348.567 -169.281 -346.762 -167.167 -346.795 -166.911C-346.797 -166.897 -346.801 -166.877 -346.802 -166.872C-346.803 -166.87 -346.804 -166.866 -346.804 -166.864C-346.805 -166.861 -346.805 -166.859 -346.805 -166.859C-346.806 -166.857 -346.806 -166.855 -346.806 -166.855C-346.806 -166.854 -346.806 -166.854 -346.806 -166.854C-346.807 -166.852 -346.807 -166.851 -346.807 -166.85C-346.808 -166.849 -346.808 -166.847 -346.809 -166.844L-350.71 -167.725C-350.71 -167.726 -350.71 -167.727 -350.71 -167.727C-350.71 -167.727 -350.71 -167.727 -350.71 -167.728C-350.71 -167.728 -350.71 -167.728 -350.71 -167.728C-350.71 -167.728 -350.71 -167.728 -350.71 -167.728C-350.71 -167.728 -350.71 -167.728 -350.71 -167.727C-350.71 -167.727 -350.71 -167.727 -350.71 -167.726C-350.71 -167.726 -350.71 -167.725 -350.711 -167.725C-350.711 -167.724 -350.711 -167.723 -350.711 -167.721C-350.711 -167.72 -350.712 -167.718 -350.713 -167.715C-350.713 -167.714 -350.714 -167.71 -350.714 -167.707C-350.715 -167.702 -350.719 -167.683 -350.722 -167.669C-350.755 -167.413 -348.949 -165.299 -346.825 -166.778C-346.82 -166.797 -346.814 -166.823 -346.812 -166.829C-346.81 -166.836 -346.809 -166.842 -346.809 -166.842C-346.808 -166.845 -346.808 -166.847 -346.808 -166.847C-346.808 -166.848 -346.808 -166.848 -346.808 -166.849C-346.807 -166.849 -346.807 -166.85 -346.807 -166.85C-346.807 -166.851 -346.807 -166.85 -346.808 -166.845C-346.81 -166.836 -346.814 -166.818 -346.821 -166.79L-350.728 -167.648ZM-346.807 -166.857L-346.809 -166.844L-350.739 -167.593L-350.736 -167.606L-346.807 -166.857Z" fill="white" mask="url(#path-7-inside-2_901_7)"/>
<defs>
<filter id="filter0_f_901_7" x="-444" y="-536.613" width="2040" height="1084.61" filterUnits="userSpaceOnUse" color-interpolation-filters="sRGB">
<feFlood flood-opacity="0" result="BackgroundImageFix"/>
<feBlend mode="normal" in="SourceGraphic" in2="BackgroundImageFix" result="shape"/>
<feGaussianBlur stdDeviation="62" result="effect1_foregroundBlur_901_7"/>
</filter>
<filter id="filter1_f_901_7" x="-444" y="-536.613" width="2040" height="1084.61" filterUnits="userSpaceOnUse" color-interpolation-filters="sRGB">
<feFlood flood-opacity="0" result="BackgroundImageFix"/>
<feBlend mode="normal" in="SourceGraphic" in2="BackgroundImageFix" result="shape"/>
<feGaussianBlur stdDeviation="62" result="effect1_foregroundBlur_901_7"/>
</filter>
<filter id="filter2_f_901_7" x="-6.76953" y="26.4697" width="393.039" height="745.53" filterUnits="userSpaceOnUse" color-interpolation-filters="sRGB">
<feFlood flood-opacity="0" result="BackgroundImageFix"/>
<feBlend mode="normal" in="SourceGraphic" in2="BackgroundImageFix" result="shape"/>
<feGaussianBlur stdDeviation="32" result="effect1_foregroundBlur_901_7"/>
</filter>
<filter id="filter3_f_901_7" x="840.75" y="155.47" width="393.039" height="745.53" filterUnits="userSpaceOnUse" color-interpolation-filters="sRGB">
<feFlood flood-opacity="0" result="BackgroundImageFix"/>
<feBlend mode="normal" in="SourceGraphic" in2="BackgroundImageFix" result="shape"/>
<feGaussianBlur stdDeviation="32" result="effect1_foregroundBlur_901_7"/>
</filter>
<radialGradient id="paint0_radial_901_7" cx="0" cy="0" r="1" gradientUnits="userSpaceOnUse" gradientTransform="translate(575.546 424) rotate(-89.9689) scale(836.613 1792)">
<stop stop-color="#FDFCFC"/>
<stop offset="0.653969" stop-color="#7F99B6"/>
</radialGradient>
<radialGradient id="paint1_radial_901_7" cx="0" cy="0" r="1" gradientUnits="userSpaceOnUse" gradientTransform="translate(575.546 424) rotate(-89.9689) scale(836.613 1792)">
<stop stop-color="#FDFCFC"/>
<stop offset="0.653969" stop-color="#7F99B6"/>
</radialGradient>
</defs>
</svg>
