<svg width="47" height="58" viewBox="0 0 47 58" fill="none" xmlns="http://www.w3.org/2000/svg">
<path d="M18.2973 9H12.6667C7.63835 9 5.12419 9 3.56211 10.5621C2 12.1242 2 14.6383 2 19.6667V39.6667C2 47.2091 2 50.9803 4.34315 53.3235C6.68629 55.6667 10.4575 55.6667 18 55.6667H28.6667C36.2091 55.6667 39.9803 55.6667 42.3235 53.3235C44.6667 50.9803 44.6667 47.2091 44.6667 39.6667V32.8515C44.6667 26.4363 44.6667 23.2289 43.0736 20.6512C41.4805 18.0736 38.6117 16.6392 32.8739 13.7703L27.8379 11.2522C25.5957 10.1312 24.4747 9.57069 23.2659 9.28533C22.0573 9 20.804 9 18.2973 9Z" stroke="#3586CB" stroke-width="3" stroke-linecap="round" stroke-linejoin="round"/>
<path d="M23.3333 45C26.2789 45 28.6667 42.7614 28.6667 40C28.6667 36.6667 23.3333 31.6667 23.3333 31.6667C23.3333 31.6667 18 36.6667 18 40C18 42.7614 20.3877 45 23.3333 45Z" stroke="#3586CB" stroke-width="3" stroke-linecap="round" stroke-linejoin="round"/>
<path d="M24.6665 18.3333L35.3332 23.6666" stroke="#3586CB" stroke-width="3" stroke-linecap="round" stroke-linejoin="round"/>
<path d="M7.33325 8.99998V6.99998C7.33325 5.12737 7.33325 4.19105 7.78267 3.51846C7.97723 3.22729 8.22722 2.97729 8.5184 2.78273C9.19098 2.33331 10.1273 2.33331 11.9999 2.33331C13.8725 2.33331 14.8089 2.33331 15.4814 2.78273C15.7726 2.97729 16.0226 3.22729 16.2172 3.51846C16.6666 4.19105 16.6666 5.12737 16.6666 6.99998V8.99998" stroke="#3586CB" stroke-width="3" stroke-linecap="round" stroke-linejoin="round"/>
</svg>
