<svg width="167" height="38" viewBox="0 0 167 38" fill="none" xmlns="http://www.w3.org/2000/svg">
<path d="M0.00410794 3.00481C0.00137756 3.00541 0 3.00571 0 3.00571L0.00410794 3.00481Z" fill="url(#paint0_linear_4157_23032)"/>
<path d="M5.30609 2.71676C4.02387 2.63102 2.88735 2.66632 1.9936 2.73805C1.92209 3.628 1.88707 4.75871 1.97275 6.03403C2.156 8.76148 2.88027 12.0274 4.86665 15.0447L18.073 11.7435L15.3535 6.32241C12.0614 3.79249 8.35006 2.92033 5.30609 2.71676Z" fill="url(#paint1_linear_4157_23032)"/>
<path d="M1.97275 30.8595C2.1709 27.9119 3.00198 24.3301 5.38083 21.1076L18.3098 17.8757L15.0689 30.8284C10.4118 34.4744 5.47044 34.5534 1.99422 34.1598C1.92231 33.27 1.88682 32.1377 1.97275 30.8595Z" fill="url(#paint2_linear_4157_23032)"/>
<path d="M30.9049 14.6161L24.6744 11.5072L21.5769 5.33231C24.4857 3.55537 27.5823 2.891 30.1863 2.71675C31.4664 2.6311 32.6006 2.66626 33.4926 2.73782C33.5645 3.62821 33.6 4.75965 33.5151 6.03583C33.342 8.63463 32.6792 11.7214 30.9049 14.6161Z" fill="url(#paint3_linear_4157_23032)"/>
<path d="M24.4441 18.1051L29.9173 20.8361C32.4449 24.1193 33.3183 27.8199 33.524 30.8547C33.6104 32.1293 33.5766 33.2595 33.5062 34.1494C32.6148 34.2207 31.4819 34.2557 30.2037 34.1702C27.4664 33.987 24.1849 33.2623 21.1494 31.2731L24.4441 18.1051Z" fill="url(#paint4_linear_4157_23032)"/>
<path d="M49.8365 22.0107V9.98669H52.5965V22.0107C52.5965 25.0347 50.5565 26.8347 47.6765 26.8347C44.7965 26.8347 42.7565 25.0347 42.7565 22.0107H45.5165C45.5405 23.4027 46.2125 24.4107 47.6765 24.4107C49.1405 24.4107 49.8365 23.4027 49.8365 22.0107ZM62.6154 15.5307C60.7674 15.5307 59.2794 16.7787 58.9914 18.8667H66.3114C66.2634 16.8267 64.6554 15.5307 62.6154 15.5307ZM68.8074 22.7307C68.0634 25.0347 65.9754 26.8827 62.7354 26.8827C58.9434 26.8827 56.1354 24.1947 56.1354 20.0427C56.1354 15.8907 58.8234 13.2267 62.7354 13.2267C66.5034 13.2267 69.1674 15.8427 69.1674 19.7307C69.1674 20.1867 69.1434 20.6187 69.0714 21.0747H58.9674C59.1594 23.2587 60.7194 24.5787 62.7354 24.5787C64.4154 24.5787 65.3514 23.7627 65.8554 22.7307H68.8074ZM72.2919 22.9947V15.6747H70.7319V13.4427H72.2919V10.1547H75.0519V13.4427H78.2679V15.6747H75.0519V22.9947C75.0519 23.9787 75.4359 24.3867 76.5879 24.3867H78.2679V26.6667H76.1079C73.7559 26.6667 72.2919 25.6827 72.2919 22.9947ZM90.6536 22.9707C90.6536 25.2027 88.7096 26.8827 85.5896 26.8827C82.4216 26.8827 80.1896 25.0107 80.0696 22.6107H82.9016C82.9976 23.6907 84.0296 24.5787 85.5416 24.5787C87.1256 24.5787 87.9656 23.9067 87.9656 22.9947C87.9656 20.4027 80.2856 21.8907 80.2856 17.0427C80.2856 14.9307 82.2536 13.2267 85.3736 13.2267C88.3736 13.2267 90.3416 14.8347 90.4856 17.4747H87.7496C87.6536 16.3227 86.7656 15.5307 85.2776 15.5307C83.8136 15.5307 83.0456 16.1307 83.0456 17.0187C83.0456 19.6827 90.5096 18.1947 90.6536 22.9707ZM94.0419 22.9947V15.6747H92.4819V13.4427H94.0419V10.1547H96.8019V13.4427H100.018V15.6747H96.8019V22.9947C96.8019 23.9787 97.1859 24.3867 98.3379 24.3867H100.018V26.6667H97.8579C95.5059 26.6667 94.0419 25.6827 94.0419 22.9947ZM105.276 19.7067V26.6667H102.54V13.4427H105.276V15.3627C106.044 14.0427 107.364 13.2267 109.236 13.2267V16.0587H108.54C106.524 16.0587 105.276 16.8987 105.276 19.7067ZM117.319 15.5307C115.471 15.5307 113.983 16.7787 113.695 18.8667H121.015C120.967 16.8267 119.359 15.5307 117.319 15.5307ZM123.511 22.7307C122.767 25.0347 120.679 26.8827 117.439 26.8827C113.647 26.8827 110.839 24.1947 110.839 20.0427C110.839 15.8907 113.527 13.2267 117.439 13.2267C121.207 13.2267 123.871 15.8427 123.871 19.7307C123.871 20.1867 123.847 20.6187 123.775 21.0747H113.671C113.863 23.2587 115.423 24.5787 117.439 24.5787C119.119 24.5787 120.055 23.7627 120.559 22.7307H123.511ZM125.651 19.9947C125.651 15.9147 128.411 13.2267 131.891 13.2267C134.123 13.2267 135.659 14.2827 136.475 15.3627V13.4427H139.235V26.6667H136.475V24.6987C135.635 25.8267 134.051 26.8827 131.843 26.8827C128.411 26.8827 125.651 24.0747 125.651 19.9947ZM136.475 20.0427C136.475 17.2107 134.531 15.6027 132.467 15.6027C130.427 15.6027 128.459 17.1387 128.459 19.9947C128.459 22.8507 130.427 24.5067 132.467 24.5067C134.531 24.5067 136.475 22.8987 136.475 20.0427ZM161.573 26.6667V19.2747C161.573 16.8507 160.253 15.6027 158.261 15.6027C156.245 15.6027 154.925 16.8507 154.925 19.2747V26.6667H152.213V19.2747C152.213 16.8507 150.893 15.6027 148.901 15.6027C146.885 15.6027 145.565 16.8507 145.565 19.2747V26.6667H142.829V13.4427H145.565V14.9547C146.453 13.8747 147.893 13.2267 149.477 13.2267C151.565 13.2267 153.317 14.1147 154.229 15.8427C155.045 14.2347 156.917 13.2267 158.837 13.2267C161.933 13.2267 164.285 15.1707 164.285 18.8667V26.6667H161.573Z" fill="#ffffff"/>
<defs>
<linearGradient id="paint0_linear_4157_23032" x1="0" y1="18.4927" x2="33.5753" y2="18.4927" gradientUnits="userSpaceOnUse">
<stop stop-color="#378CD4"/>
<stop offset="1" stop-color="#204B7E"/>
</linearGradient>
<linearGradient id="paint1_linear_4157_23032" x1="0" y1="18.4927" x2="33.5753" y2="18.4927" gradientUnits="userSpaceOnUse">
<stop stop-color="#378CD4"/>
<stop offset="1" stop-color="#204B7E"/>
</linearGradient>
<linearGradient id="paint2_linear_4157_23032" x1="0" y1="18.4927" x2="33.5753" y2="18.4927" gradientUnits="userSpaceOnUse">
<stop stop-color="#378CD4"/>
<stop offset="1" stop-color="#204B7E"/>
</linearGradient>
<linearGradient id="paint3_linear_4157_23032" x1="0" y1="18.4927" x2="33.5753" y2="18.4927" gradientUnits="userSpaceOnUse">
<stop stop-color="#378CD4"/>
<stop offset="1" stop-color="#204B7E"/>
</linearGradient>
<linearGradient id="paint4_linear_4157_23032" x1="0" y1="18.4927" x2="33.5753" y2="18.4927" gradientUnits="userSpaceOnUse">
<stop stop-color="#378CD4"/>
<stop offset="1" stop-color="#204B7E"/>
</linearGradient>
</defs>
</svg>
