<svg width="67" height="60" viewBox="0 0 67 60" fill="none" xmlns="http://www.w3.org/2000/svg">
<path d="M31.3334 4.33331H23.3333C13.2767 4.33331 8.2484 4.33331 5.12419 7.4575C2 10.5817 2 15.61 2 25.6666C2 35.7232 2 40.7517 5.12419 43.8757C8.2484 47 13.2767 47 23.3333 47H34.0001C44.0566 47 49.0852 47 52.2092 43.8757C53.951 42.1338 54.7217 39.8002 55.0628 36.3333" stroke="#3586CB" stroke-width="3" stroke-linecap="round"/>
<path d="M28.6667 47V57.6667" stroke="#3586CB" stroke-width="3"/>
<path d="M18 57.6667H39.3334" stroke="#3586CB" stroke-width="3" stroke-linecap="round"/>
<path d="M26 39H31.3333" stroke="#3586CB" stroke-width="3" stroke-linecap="round" stroke-linejoin="round"/>
<path d="M59.9887 12.7258C61.7652 12.9145 62.9139 13.9668 64.0995 15.1861C64.7128 15.8168 65.0194 16.1322 65.1721 16.4784C65.4145 17.0277 65.4144 17.6578 65.1721 18.2071C65.0194 18.5533 64.7127 18.8686 64.0996 19.4993C62.914 20.7187 61.7652 21.7709 59.9887 21.9596C58.4927 22.1185 56.9113 21.4018 55.445 21.7622C54.3256 22.0373 53.8001 22.9561 53.2384 23.8805L49.0324 30.8014C48.1942 32.1807 47.2777 32.6855 45.7273 32.6855C44.9023 32.6855 44.58 32.3215 44.7786 31.4539L47.2093 20.8298L43.6977 20.4284C42.4244 20.283 41.7878 20.2102 41.2046 20.4207C39.8388 20.9134 38.7202 22.5862 37.7268 23.6078C37.1778 24.1725 35.599 24.7889 34.8811 24.145C34.4378 23.7475 34.7977 23.1017 34.9706 22.6573L36.6347 18.3787C37.0326 17.3556 37.0326 17.3299 36.6346 16.3068L34.9705 12.0282C34.7977 11.5838 34.4379 10.938 34.8811 10.5405C35.5991 9.89666 37.1778 10.5129 37.7268 11.0776C38.7203 12.0993 39.8388 13.7722 41.2047 14.2649C41.7878 14.4753 42.4244 14.4025 43.6977 14.2571L47.2093 13.8557L44.7787 3.23166C44.5802 2.36403 44.9023 1.99999 45.7272 2C47.2777 2 48.1942 2.50482 49.0324 3.88399L53.2384 10.805C53.8002 11.7294 54.3256 12.6482 55.445 12.9233C56.9113 13.2837 58.4927 12.567 59.9887 12.7258Z" stroke="#3586CB" stroke-width="3" stroke-linecap="round" stroke-linejoin="round"/>
</svg>
